<svg xmlns="http://www.w3.org/2000/svg" width="980" height="210" viewBox="0 0 980 210" role="img" aria-labelledby="title desc"><title id="title">CarCareCloud</title><desc id="desc">CarCareCloud car and cloud logo</desc><defs><linearGradient id="cloud" x1="0" y1="0" x2="1" y2="0"><stop offset="0" stop-color="#168EF5"/><stop offset="1" stop-color="#18B7F4"/></linearGradient></defs><g transform="translate(8 22)"><path d="M92 142C38 142 26 105 48 78c10-12 24-18 42-18 7-29 31-47 61-47 30 0 55 18 64 45 8-5 17-7 27-7 28 0 50 20 54 46" fill="none" stroke="url(#cloud)" stroke-width="15" stroke-linecap="round"/><path d="M36 142h258" fill="none" stroke="#0B2545" stroke-width="12" stroke-linecap="round"/><path d="M47 135h211c9 0 16-6 16-14v-5h-20l-25-36c-6-9-15-14-26-14h-67c-11 0-21 5-27 14l-22 36H47c-8 0-14 6-14 14v5h14Z" fill="#fff" stroke="#0B2545" stroke-width="7" stroke-linejoin="round"/><path d="M98 100 119 70h49v30Z" fill="#0B2545"/><path d="M174 70v30h51l-22-30Z" fill="#0B2545"/><circle cx="88" cy="138" r="16" fill="#0B2545"/><circle cx="88" cy="138" r="7" fill="#fff"/><circle cx="229" cy="138" r="16" fill="#0B2545"/><circle cx="229" cy="138" r="7" fill="#fff"/><path d="M248 143c22-1 37-7 55-18-17 3-35 7-53 15Z" fill="#F58220"/></g><g transform="translate(350 74)"><text x="0" y="56" font-family="Inter,Arial,sans-serif" font-size="72" font-weight="750" letter-spacing="-3"><tspan fill="#0B2545">C</tspan><tspan fill="#0B2545">arCare</tspan><tspan fill="#168EF5">Cloud</tspan></text><path d="M3 70h34" stroke="#F58220" stroke-width="6" stroke-linecap="round"/></g></svg>